<svg width="12" height="8" viewBox="0 0 12 8" fill="none" xmlns="http://www.w3.org/2000/svg">
<path d="M0.362915 0.773793C-0.0330353 1.15882 -0.0418935 1.79192 0.343129 2.18787L5.22314 7.20638C5.43421 7.42344 5.71983 7.52417 6.00006 7.50745C6.2803 7.52417 6.56592 7.42344 6.77699 7.20638L11.657 2.18787C12.042 1.79192 12.0332 1.15882 11.6372 0.773793C11.2413 0.388771 10.6082 0.397629 10.2231 0.793578L6.00006 5.13651L1.77699 0.793578C1.39197 0.397629 0.758864 0.388771 0.362915 0.773793Z" fill="#74A2B2"/>
<path d="M0.362915 0.773793C-0.0330353 1.15882 -0.0418935 1.79192 0.343129 2.18787L5.22314 7.20638C5.43421 7.42344 5.71983 7.52417 6.00006 7.50745C6.2803 7.52417 6.56592 7.42344 6.77699 7.20638L11.657 2.18787C12.042 1.79192 12.0332 1.15882 11.6372 0.773793C11.2413 0.388771 10.6082 0.397629 10.2231 0.793578L6.00006 5.13651L1.77699 0.793578C1.39197 0.397629 0.758864 0.388771 0.362915 0.773793Z" fill="#5ED3F3"/>
<path d="M0.362915 0.773793C-0.0330353 1.15882 -0.0418935 1.79192 0.343129 2.18787L5.22314 7.20638C5.43421 7.42344 5.71983 7.52417 6.00006 7.50745C6.2803 7.52417 6.56592 7.42344 6.77699 7.20638L11.657 2.18787C12.042 1.79192 12.0332 1.15882 11.6372 0.773793C11.2413 0.388771 10.6082 0.397629 10.2231 0.793578L6.00006 5.13651L1.77699 0.793578C1.39197 0.397629 0.758864 0.388771 0.362915 0.773793Z" fill="#4875F0"/>
</svg>
